<?xml version="1.0" encoding="UTF-8" standalone="no"?>
<!DOCTYPE svg PUBLIC "-//W3C//DTD SVG 1.1//EN" "http://www.w3.org/Graphics/SVG/1.1/DTD/svg11.dtd">
<svg height="100%" stroke-miterlimit="10" style="fill-rule:nonzero;clip-rule:evenodd;stroke-linecap:round;stroke-linejoin:round;" version="1.1" viewBox="0 0 332.994 73.3713" width="100%" xml:space="preserve" xmlns="http://www.w3.org/2000/svg" xmlns:xlink="http://www.w3.org/1999/xlink">
<defs/>
<g id="SvgjsG1117">
<g opacity="1">
<path d="M68.716 59.9518L68.716 48.7614C68.716 51.0569 66.7075 53.3524 62.9774 55.0739C49.2046 61.9603 18.5029 61.6734 5.87785 54.5001C2.72159 52.7785 0.999999 50.77 0.999999 48.7614L0.999999 59.9518C1.28693 74.8723 68.716 74.8723 68.716 59.9518Z" fill="#08d9d6" fill-rule="nonzero" opacity="1" stroke="none"/>
<path d="M85.0712 4C80.7672 4 77.0371 7.44319 77.0371 12.0341C77.0371 16.0512 80.4802 20.0682 85.0712 20.0682C89.3751 20.0682 93.1053 16.3381 93.1053 12.0341C93.1053 7.73012 89.6621 4 85.0712 4Z" fill="#08d9d6" fill-rule="nonzero" opacity="1" stroke="none" />
<path d="M74.4547 20.929C71.2984 17.1989 70.4376 11.4602 72.1592 6.86932C68.716 6.00853 64.9859 5.43466 61.2558 5.43466C21.9461 6.00853 8.17331 24.3722 6.16478 48.4745C19.0767 57.9433 49.4916 58.2302 62.9774 49.0484C63.5512 38.4319 59.2473 32.9802 74.4547 20.929Z" fill="#08d9d6" fill-rule="nonzero" opacity="1" stroke="none"/>
</g>
</g>
<g id="SvgjsG1118">
<path d="M86.6969 41.0728C86.6969 46.4603 109.525 43.9035 109.525 58.1482C109.525 67.4621 101.307 72.6669 91.0799 72.6669C84.5967 72.6669 78.1135 69.471 73 64.3575L81.8573 55.5002C84.414 58.6048 88.0665 60.9789 91.0799 61.2529C94.0932 61.5268 96.6499 60.2484 97.1065 58.8787C98.2022 55.4089 91.9017 55.2263 89.9841 54.6784C82.7704 52.4869 74.3697 49.4736 74.3697 40.525C74.3697 29.8414 85.5098 26.1889 91.0799 26.1889C97.4717 26.1889 103.955 29.1109 109.16 34.407L100.394 43.173C98.0196 40.0684 93.9105 37.603 91.0799 37.603C89.6189 37.603 86.6969 38.1508 86.6969 41.0728ZM131.11 52.7608C131.11 56.0481 131.019 61.5268 136.041 61.5268C138.506 61.5268 140.058 60.5224 141.793 59.244L141.793 70.3841C139.693 71.5712 137.136 72.6669 134.397 72.6669C122.8 72.6669 117.596 67.736 117.596 52.7608L117.596 37.9682L112.573 37.9682L112.573 26.8281L117.596 26.8281L117.596 13.8617L131.11 13.8617L131.11 26.8281L141.793 26.8281L141.793 37.9682L131.11 37.9682L131.11 52.7608ZM171.505 37.329C165.935 37.329 161.278 42.2599 161.278 49.4736C161.278 56.5959 165.935 61.5268 171.505 61.5268C177.167 61.5268 181.823 56.5959 181.823 49.4736C181.823 42.2599 177.167 37.329 171.505 37.329ZM171.505 26.1889C184.745 26.1889 195.338 36.142 195.338 49.4736C195.338 62.8052 184.745 72.6669 171.505 72.6669C158.356 72.6669 147.764 62.8052 147.764 49.4736C147.764 36.142 158.356 26.1889 171.505 26.1889ZM230.528 27.4673L228.702 37.603C225.323 36.142 224.684 36.4159 223.132 36.4159C217.653 36.4159 214.457 39.3379 214.457 46.5516L214.457 71.9364L200.943 71.9364L200.943 26.8281L214.457 26.8281L214.457 30.8458C216.192 27.7412 220.94 26.1889 223.954 26.1889C226.784 26.1889 228.428 26.2802 230.528 27.4673ZM277.224 49.4736L277.224 52.4869L245.082 52.4869C245.082 57.783 250.469 61.5268 254.944 61.5268C259.327 61.5268 263.344 59.7919 265.445 55.9568L274.485 64.2662C270.832 69.197 265.262 72.6669 254.944 72.6669C240.151 72.6669 231.111 62.8052 231.111 49.4736C231.111 36.142 239.877 26.1889 254.122 26.1889C268.367 26.1889 277.224 35.9593 277.224 49.4736ZM245.356 43.9035L263.071 43.9035C262.34 39.6118 259.235 37.329 254.122 37.329C249.191 37.329 246.178 39.9771 245.356 43.9035ZM295.522 4L295.522 71.9364L281.916 71.9364L281.916 4L295.522 4ZM330.895 7.19593L330.895 17.8795C328.977 16.1445 325.964 16.0532 325.142 16.0532C320.485 16.0532 320.211 20.9841 320.211 24.7279L320.211 26.8281L330.895 26.8281L330.895 37.9682L320.211 37.9682L320.211 71.9364L306.697 71.9364L306.697 37.9682L301.675 37.9682L301.675 26.8281L306.697 26.8281L306.697 24.7279C306.697 10.4832 311.993 4.82181 323.498 4.82181C326.238 4.82181 328.795 5.91756 330.895 7.19593Z" fill="#495366" fill-rule="nonzero" opacity="1" stroke="none"/>
</g>
</svg>
